<mxfile host="app.diagrams.net" agent="Mozilla/5.0 (Windows NT 10.0; Win64; x64) AppleWebKit/537.36 (KHTML, like Gecko) Chrome/131.0.0.0 Safari/537.36" version="26.0.5">
  <diagram name="Page-1" id="03018318-947c-dd8e-b7a3-06fadd420f32">
    <mxGraphModel dx="3354" dy="1258" grid="1" gridSize="10" guides="1" tooltips="1" connect="1" arrows="1" fold="1" page="1" pageScale="1" pageWidth="1100" pageHeight="850" background="none" math="0" shadow="0">
      <root>
        <mxCell id="0" />
        <mxCell id="1" parent="0" />
        <mxCell id="677b7b8949515195-1" value="" style="whiteSpace=wrap;html=1;rounded=0;shadow=0;labelBackgroundColor=none;strokeColor=#000000;strokeWidth=1;fillColor=none;fontFamily=Verdana;fontSize=12;fontColor=#000000;align=center;comic=1;" parent="1" vertex="1">
          <mxGeometry x="20" y="60" width="1060" height="560" as="geometry" />
        </mxCell>
        <mxCell id="gBdz1FRmPUKY2ZFgMoxz-1" value="&lt;font style=&quot;font-size: 18px;&quot;&gt;fourthwallacademy.com/Instructors/Details/1&lt;/font&gt;" style="html=1;strokeWidth=1;shadow=0;dashed=0;shape=mxgraph.ios7ui.url;fillColor=#e0e0e0;strokeColor=#c0c0c0;buttonText=;strokeColor2=#222222;fontColor=#222222;fontSize=8;spacingTop=2;align=center;whiteSpace=wrap;" parent="1" vertex="1">
          <mxGeometry x="25" y="10" width="1050" height="40" as="geometry" />
        </mxCell>
        <mxCell id="CBU3p2uWpCq7XRt16fgI-1" value="Captain Quantum" style="text;strokeColor=none;fillColor=none;html=1;fontSize=24;fontStyle=1;verticalAlign=middle;align=center;" parent="1" vertex="1">
          <mxGeometry x="90" y="161.75" width="210" height="40" as="geometry" />
        </mxCell>
        <mxCell id="CBU3p2uWpCq7XRt16fgI-3" value="&lt;font style=&quot;font-size: 16px;&quot;&gt;Hire Date:&amp;nbsp;&lt;/font&gt;" style="text;html=1;align=right;verticalAlign=middle;whiteSpace=wrap;rounded=0;" parent="1" vertex="1">
          <mxGeometry x="110" y="231.75" width="90" height="30" as="geometry" />
        </mxCell>
        <mxCell id="CBU3p2uWpCq7XRt16fgI-6" value="&lt;font style=&quot;font-size: 16px;&quot;&gt;Termination Date:&amp;nbsp;&lt;/font&gt;" style="text;html=1;align=right;verticalAlign=middle;whiteSpace=wrap;rounded=0;" parent="1" vertex="1">
          <mxGeometry x="61" y="280" width="139" height="30" as="geometry" />
        </mxCell>
        <mxCell id="CBU3p2uWpCq7XRt16fgI-11" value="&lt;font style=&quot;font-size: 16px;&quot;&gt;Edit&lt;/font&gt;" style="rounded=1;fillColor=#0057D8;strokeColor=none;html=1;whiteSpace=wrap;fontColor=#ffffff;align=center;verticalAlign=middle;fontStyle=0;fontSize=12;sketch=0;" parent="1" vertex="1">
          <mxGeometry x="110" y="323.5" width="86" height="33" as="geometry" />
        </mxCell>
        <mxCell id="CBU3p2uWpCq7XRt16fgI-12" value="Go Back" style="html=1;shadow=0;dashed=0;shape=mxgraph.bootstrap.rrect;rSize=5;strokeColor=none;strokeWidth=1;fillColor=none;fontColor=#0085FC;whiteSpace=wrap;align=center;verticalAlign=middle;spacingLeft=0;fontStyle=0;fontSize=16;spacing=5;" parent="1" vertex="1">
          <mxGeometry x="210" y="320" width="100" height="40" as="geometry" />
        </mxCell>
        <mxCell id="CBU3p2uWpCq7XRt16fgI-16" value="Instructor Details" style="text;strokeColor=none;fillColor=none;html=1;fontSize=24;fontStyle=1;verticalAlign=middle;align=center;" parent="1" vertex="1">
          <mxGeometry x="445" y="100" width="210" height="40" as="geometry" />
        </mxCell>
        <mxCell id="CBU3p2uWpCq7XRt16fgI-17" value="&lt;font style=&quot;font-size: 16px;&quot;&gt;Terminate&lt;/font&gt;" style="rounded=1;fillColor=#f8cecc;strokeColor=#b85450;html=1;whiteSpace=wrap;align=center;verticalAlign=middle;fontStyle=0;fontSize=12;sketch=0;" parent="1" vertex="1">
          <mxGeometry x="890" y="323.5" width="113" height="33" as="geometry" />
        </mxCell>
        <mxCell id="RW0NIIxTmiM2ygTzFxyz-1" value="&lt;font style=&quot;font-size: 16px;&quot;&gt;2022-01-15&lt;/font&gt;" style="text;html=1;align=right;verticalAlign=middle;whiteSpace=wrap;rounded=0;" parent="1" vertex="1">
          <mxGeometry x="210" y="231.75" width="90" height="30" as="geometry" />
        </mxCell>
        <mxCell id="RW0NIIxTmiM2ygTzFxyz-3" value="&lt;font style=&quot;font-size: 16px;&quot;&gt;none&lt;/font&gt;" style="text;html=1;align=right;verticalAlign=middle;whiteSpace=wrap;rounded=0;" parent="1" vertex="1">
          <mxGeometry x="215" y="280" width="40" height="30" as="geometry" />
        </mxCell>
        <mxCell id="yfmA3VbyJ0gUPL85XCYw-1" value="Sections" style="shape=table;startSize=30;container=1;collapsible=0;childLayout=tableLayout;strokeColor=#001DBC;fontSize=20;fontStyle=1;align=left;fillColor=#0050ef;fontColor=#ffffff;" parent="1" vertex="1">
          <mxGeometry x="28" y="390" width="1012" height="220" as="geometry" />
        </mxCell>
        <mxCell id="yfmA3VbyJ0gUPL85XCYw-2" value="" style="shape=tableRow;horizontal=0;startSize=0;swimlaneHead=0;swimlaneBody=0;strokeColor=inherit;top=0;left=0;bottom=0;right=0;collapsible=0;dropTarget=0;fillColor=none;points=[[0,0.5],[1,0.5]];portConstraint=eastwest;fontSize=16;" parent="yfmA3VbyJ0gUPL85XCYw-1" vertex="1">
          <mxGeometry y="30" width="1012" height="38" as="geometry" />
        </mxCell>
        <mxCell id="yfmA3VbyJ0gUPL85XCYw-3" value="Course" style="shape=partialRectangle;html=1;whiteSpace=wrap;connectable=0;overflow=hidden;top=0;left=0;bottom=0;right=0;pointerEvents=1;fontSize=16;fontStyle=1;fillColor=#dae8fc;strokeColor=#6c8ebf;" parent="yfmA3VbyJ0gUPL85XCYw-2" vertex="1">
          <mxGeometry width="322" height="38" as="geometry">
            <mxRectangle width="322" height="38" as="alternateBounds" />
          </mxGeometry>
        </mxCell>
        <mxCell id="yfmA3VbyJ0gUPL85XCYw-4" value="Start Time" style="shape=partialRectangle;html=1;whiteSpace=wrap;connectable=0;overflow=hidden;top=0;left=0;bottom=0;right=0;pointerEvents=1;fontSize=16;fontStyle=1;fillColor=#dae8fc;strokeColor=#6c8ebf;" parent="yfmA3VbyJ0gUPL85XCYw-2" vertex="1">
          <mxGeometry x="322" width="160" height="38" as="geometry">
            <mxRectangle width="160" height="38" as="alternateBounds" />
          </mxGeometry>
        </mxCell>
        <mxCell id="yfmA3VbyJ0gUPL85XCYw-5" value="Start Date" style="shape=partialRectangle;html=1;whiteSpace=wrap;connectable=0;overflow=hidden;top=0;left=0;bottom=0;right=0;pointerEvents=1;fontSize=16;fontStyle=1;fillColor=#dae8fc;strokeColor=#6c8ebf;" parent="yfmA3VbyJ0gUPL85XCYw-2" vertex="1">
          <mxGeometry x="482" width="170" height="38" as="geometry">
            <mxRectangle width="170" height="38" as="alternateBounds" />
          </mxGeometry>
        </mxCell>
        <mxCell id="yfmA3VbyJ0gUPL85XCYw-14" value="End Date" style="shape=partialRectangle;html=1;whiteSpace=wrap;connectable=0;overflow=hidden;top=0;left=0;bottom=0;right=0;pointerEvents=1;fontSize=16;fontStyle=1;fillColor=#dae8fc;strokeColor=#6c8ebf;" parent="yfmA3VbyJ0gUPL85XCYw-2" vertex="1">
          <mxGeometry x="652" width="158" height="38" as="geometry">
            <mxRectangle width="158" height="38" as="alternateBounds" />
          </mxGeometry>
        </mxCell>
        <mxCell id="yfmA3VbyJ0gUPL85XCYw-29" style="shape=partialRectangle;html=1;whiteSpace=wrap;connectable=0;overflow=hidden;top=0;left=0;bottom=0;right=0;pointerEvents=1;fontSize=16;fontStyle=1;fillColor=#dae8fc;strokeColor=#6c8ebf;" parent="yfmA3VbyJ0gUPL85XCYw-2" vertex="1">
          <mxGeometry x="810" width="202" height="38" as="geometry">
            <mxRectangle width="202" height="38" as="alternateBounds" />
          </mxGeometry>
        </mxCell>
        <mxCell id="yfmA3VbyJ0gUPL85XCYw-6" value="" style="shape=tableRow;horizontal=0;startSize=0;swimlaneHead=0;swimlaneBody=0;strokeColor=inherit;top=0;left=0;bottom=0;right=0;collapsible=0;dropTarget=0;fillColor=none;points=[[0,0.5],[1,0.5]];portConstraint=eastwest;fontSize=16;" parent="yfmA3VbyJ0gUPL85XCYw-1" vertex="1">
          <mxGeometry y="68" width="1012" height="38" as="geometry" />
        </mxCell>
        <mxCell id="yfmA3VbyJ0gUPL85XCYw-7" value="English Literature" style="shape=partialRectangle;html=1;whiteSpace=wrap;connectable=0;overflow=hidden;top=0;left=0;bottom=0;right=0;pointerEvents=1;fontSize=16;fillColor=light-dark(#FFFFFF,#454545);" parent="yfmA3VbyJ0gUPL85XCYw-6" vertex="1">
          <mxGeometry width="322" height="38" as="geometry">
            <mxRectangle width="322" height="38" as="alternateBounds" />
          </mxGeometry>
        </mxCell>
        <mxCell id="yfmA3VbyJ0gUPL85XCYw-8" value="09:00:00" style="shape=partialRectangle;html=1;whiteSpace=wrap;connectable=0;overflow=hidden;top=0;left=0;bottom=0;right=0;pointerEvents=1;fontSize=16;fillColor=light-dark(#FFFFFF,#454545);" parent="yfmA3VbyJ0gUPL85XCYw-6" vertex="1">
          <mxGeometry x="322" width="160" height="38" as="geometry">
            <mxRectangle width="160" height="38" as="alternateBounds" />
          </mxGeometry>
        </mxCell>
        <mxCell id="yfmA3VbyJ0gUPL85XCYw-9" value="2023-04-01" style="shape=partialRectangle;html=1;whiteSpace=wrap;connectable=0;overflow=hidden;top=0;left=0;bottom=0;right=0;pointerEvents=1;fontSize=16;fillColor=light-dark(#FFFFFF,#454545);" parent="yfmA3VbyJ0gUPL85XCYw-6" vertex="1">
          <mxGeometry x="482" width="170" height="38" as="geometry">
            <mxRectangle width="170" height="38" as="alternateBounds" />
          </mxGeometry>
        </mxCell>
        <mxCell id="yfmA3VbyJ0gUPL85XCYw-15" value="2023-06-30" style="shape=partialRectangle;html=1;whiteSpace=wrap;connectable=0;overflow=hidden;top=0;left=0;bottom=0;right=0;pointerEvents=1;fontSize=16;fillColor=light-dark(#FFFFFF,#454545);" parent="yfmA3VbyJ0gUPL85XCYw-6" vertex="1">
          <mxGeometry x="652" width="158" height="38" as="geometry">
            <mxRectangle width="158" height="38" as="alternateBounds" />
          </mxGeometry>
        </mxCell>
        <mxCell id="yfmA3VbyJ0gUPL85XCYw-30" value="&lt;font style=&quot;color: light-dark(rgb(0, 0, 0), rgb(51, 153, 255));&quot;&gt;Details&lt;/font&gt;" style="shape=partialRectangle;html=1;whiteSpace=wrap;connectable=0;overflow=hidden;top=0;left=0;bottom=0;right=0;pointerEvents=1;fontSize=16;fillColor=light-dark(#FFFFFF,#454545);" parent="yfmA3VbyJ0gUPL85XCYw-6" vertex="1">
          <mxGeometry x="810" width="202" height="38" as="geometry">
            <mxRectangle width="202" height="38" as="alternateBounds" />
          </mxGeometry>
        </mxCell>
        <mxCell id="yfmA3VbyJ0gUPL85XCYw-10" value="" style="shape=tableRow;horizontal=0;startSize=0;swimlaneHead=0;swimlaneBody=0;strokeColor=inherit;top=0;left=0;bottom=0;right=0;collapsible=0;dropTarget=0;fillColor=none;points=[[0,0.5],[1,0.5]];portConstraint=eastwest;fontSize=16;" parent="yfmA3VbyJ0gUPL85XCYw-1" vertex="1">
          <mxGeometry y="106" width="1012" height="38" as="geometry" />
        </mxCell>
        <mxCell id="yfmA3VbyJ0gUPL85XCYw-11" value="Calculus" style="shape=partialRectangle;html=1;whiteSpace=wrap;connectable=0;strokeColor=inherit;overflow=hidden;fillColor=none;top=0;left=0;bottom=0;right=0;pointerEvents=1;fontSize=16;" parent="yfmA3VbyJ0gUPL85XCYw-10" vertex="1">
          <mxGeometry width="322" height="38" as="geometry">
            <mxRectangle width="322" height="38" as="alternateBounds" />
          </mxGeometry>
        </mxCell>
        <mxCell id="yfmA3VbyJ0gUPL85XCYw-12" value="11:00:00" style="shape=partialRectangle;html=1;whiteSpace=wrap;connectable=0;strokeColor=inherit;overflow=hidden;fillColor=none;top=0;left=0;bottom=0;right=0;pointerEvents=1;fontSize=16;" parent="yfmA3VbyJ0gUPL85XCYw-10" vertex="1">
          <mxGeometry x="322" width="160" height="38" as="geometry">
            <mxRectangle width="160" height="38" as="alternateBounds" />
          </mxGeometry>
        </mxCell>
        <mxCell id="yfmA3VbyJ0gUPL85XCYw-13" value="2023-04-01" style="shape=partialRectangle;html=1;whiteSpace=wrap;connectable=0;strokeColor=inherit;overflow=hidden;fillColor=none;top=0;left=0;bottom=0;right=0;pointerEvents=1;fontSize=16;" parent="yfmA3VbyJ0gUPL85XCYw-10" vertex="1">
          <mxGeometry x="482" width="170" height="38" as="geometry">
            <mxRectangle width="170" height="38" as="alternateBounds" />
          </mxGeometry>
        </mxCell>
        <mxCell id="yfmA3VbyJ0gUPL85XCYw-16" value="2023-06-30" style="shape=partialRectangle;html=1;whiteSpace=wrap;connectable=0;strokeColor=inherit;overflow=hidden;fillColor=none;top=0;left=0;bottom=0;right=0;pointerEvents=1;fontSize=16;" parent="yfmA3VbyJ0gUPL85XCYw-10" vertex="1">
          <mxGeometry x="652" width="158" height="38" as="geometry">
            <mxRectangle width="158" height="38" as="alternateBounds" />
          </mxGeometry>
        </mxCell>
        <mxCell id="yfmA3VbyJ0gUPL85XCYw-31" value="&lt;span style=&quot;color: rgb(51, 153, 255);&quot;&gt;Details&lt;/span&gt;" style="shape=partialRectangle;html=1;whiteSpace=wrap;connectable=0;strokeColor=inherit;overflow=hidden;fillColor=none;top=0;left=0;bottom=0;right=0;pointerEvents=1;fontSize=16;" parent="yfmA3VbyJ0gUPL85XCYw-10" vertex="1">
          <mxGeometry x="810" width="202" height="38" as="geometry">
            <mxRectangle width="202" height="38" as="alternateBounds" />
          </mxGeometry>
        </mxCell>
        <mxCell id="yfmA3VbyJ0gUPL85XCYw-17" style="shape=tableRow;horizontal=0;startSize=0;swimlaneHead=0;swimlaneBody=0;strokeColor=inherit;top=0;left=0;bottom=0;right=0;collapsible=0;dropTarget=0;fillColor=none;points=[[0,0.5],[1,0.5]];portConstraint=eastwest;fontSize=16;" parent="yfmA3VbyJ0gUPL85XCYw-1" vertex="1">
          <mxGeometry y="144" width="1012" height="38" as="geometry" />
        </mxCell>
        <mxCell id="yfmA3VbyJ0gUPL85XCYw-18" value="US History" style="shape=partialRectangle;html=1;whiteSpace=wrap;connectable=0;overflow=hidden;top=0;left=0;bottom=0;right=0;pointerEvents=1;fontSize=16;fillColor=light-dark(#FFFFFF,#454545);" parent="yfmA3VbyJ0gUPL85XCYw-17" vertex="1">
          <mxGeometry width="322" height="38" as="geometry">
            <mxRectangle width="322" height="38" as="alternateBounds" />
          </mxGeometry>
        </mxCell>
        <mxCell id="yfmA3VbyJ0gUPL85XCYw-19" value="13:00:00" style="shape=partialRectangle;html=1;whiteSpace=wrap;connectable=0;overflow=hidden;top=0;left=0;bottom=0;right=0;pointerEvents=1;fontSize=16;fillColor=light-dark(#FFFFFF,#454545);" parent="yfmA3VbyJ0gUPL85XCYw-17" vertex="1">
          <mxGeometry x="322" width="160" height="38" as="geometry">
            <mxRectangle width="160" height="38" as="alternateBounds" />
          </mxGeometry>
        </mxCell>
        <mxCell id="yfmA3VbyJ0gUPL85XCYw-20" value="2023-04-01" style="shape=partialRectangle;html=1;whiteSpace=wrap;connectable=0;overflow=hidden;top=0;left=0;bottom=0;right=0;pointerEvents=1;fontSize=16;fillColor=light-dark(#FFFFFF,#454545);" parent="yfmA3VbyJ0gUPL85XCYw-17" vertex="1">
          <mxGeometry x="482" width="170" height="38" as="geometry">
            <mxRectangle width="170" height="38" as="alternateBounds" />
          </mxGeometry>
        </mxCell>
        <mxCell id="yfmA3VbyJ0gUPL85XCYw-21" value="2023-06-30" style="shape=partialRectangle;html=1;whiteSpace=wrap;connectable=0;overflow=hidden;top=0;left=0;bottom=0;right=0;pointerEvents=1;fontSize=16;fillColor=light-dark(#FFFFFF,#454545);" parent="yfmA3VbyJ0gUPL85XCYw-17" vertex="1">
          <mxGeometry x="652" width="158" height="38" as="geometry">
            <mxRectangle width="158" height="38" as="alternateBounds" />
          </mxGeometry>
        </mxCell>
        <mxCell id="yfmA3VbyJ0gUPL85XCYw-32" value="&lt;span style=&quot;color: rgb(51, 153, 255);&quot;&gt;Details&lt;/span&gt;" style="shape=partialRectangle;html=1;whiteSpace=wrap;connectable=0;overflow=hidden;top=0;left=0;bottom=0;right=0;pointerEvents=1;fontSize=16;fillColor=light-dark(#FFFFFF,#454545);" parent="yfmA3VbyJ0gUPL85XCYw-17" vertex="1">
          <mxGeometry x="810" width="202" height="38" as="geometry">
            <mxRectangle width="202" height="38" as="alternateBounds" />
          </mxGeometry>
        </mxCell>
        <mxCell id="yfmA3VbyJ0gUPL85XCYw-22" style="shape=tableRow;horizontal=0;startSize=0;swimlaneHead=0;swimlaneBody=0;strokeColor=inherit;top=0;left=0;bottom=0;right=0;collapsible=0;dropTarget=0;fillColor=none;points=[[0,0.5],[1,0.5]];portConstraint=eastwest;fontSize=16;" parent="yfmA3VbyJ0gUPL85XCYw-1" vertex="1">
          <mxGeometry y="182" width="1012" height="38" as="geometry" />
        </mxCell>
        <mxCell id="yfmA3VbyJ0gUPL85XCYw-23" value="Spanish" style="shape=partialRectangle;html=1;whiteSpace=wrap;connectable=0;strokeColor=inherit;overflow=hidden;fillColor=none;top=0;left=0;bottom=0;right=0;pointerEvents=1;fontSize=16;" parent="yfmA3VbyJ0gUPL85XCYw-22" vertex="1">
          <mxGeometry width="322" height="38" as="geometry">
            <mxRectangle width="322" height="38" as="alternateBounds" />
          </mxGeometry>
        </mxCell>
        <mxCell id="yfmA3VbyJ0gUPL85XCYw-24" value="15:00:00" style="shape=partialRectangle;html=1;whiteSpace=wrap;connectable=0;strokeColor=inherit;overflow=hidden;fillColor=none;top=0;left=0;bottom=0;right=0;pointerEvents=1;fontSize=16;" parent="yfmA3VbyJ0gUPL85XCYw-22" vertex="1">
          <mxGeometry x="322" width="160" height="38" as="geometry">
            <mxRectangle width="160" height="38" as="alternateBounds" />
          </mxGeometry>
        </mxCell>
        <mxCell id="yfmA3VbyJ0gUPL85XCYw-25" value="2023-04-01" style="shape=partialRectangle;html=1;whiteSpace=wrap;connectable=0;strokeColor=inherit;overflow=hidden;fillColor=none;top=0;left=0;bottom=0;right=0;pointerEvents=1;fontSize=16;" parent="yfmA3VbyJ0gUPL85XCYw-22" vertex="1">
          <mxGeometry x="482" width="170" height="38" as="geometry">
            <mxRectangle width="170" height="38" as="alternateBounds" />
          </mxGeometry>
        </mxCell>
        <mxCell id="yfmA3VbyJ0gUPL85XCYw-26" value="2023-06-30" style="shape=partialRectangle;html=1;whiteSpace=wrap;connectable=0;strokeColor=inherit;overflow=hidden;fillColor=none;top=0;left=0;bottom=0;right=0;pointerEvents=1;fontSize=16;" parent="yfmA3VbyJ0gUPL85XCYw-22" vertex="1">
          <mxGeometry x="652" width="158" height="38" as="geometry">
            <mxRectangle width="158" height="38" as="alternateBounds" />
          </mxGeometry>
        </mxCell>
        <mxCell id="yfmA3VbyJ0gUPL85XCYw-33" value="&lt;span style=&quot;color: rgb(51, 153, 255);&quot;&gt;Details&lt;/span&gt;" style="shape=partialRectangle;html=1;whiteSpace=wrap;connectable=0;strokeColor=inherit;overflow=hidden;fillColor=none;top=0;left=0;bottom=0;right=0;pointerEvents=1;fontSize=16;" parent="yfmA3VbyJ0gUPL85XCYw-22" vertex="1">
          <mxGeometry x="810" width="202" height="38" as="geometry">
            <mxRectangle width="202" height="38" as="alternateBounds" />
          </mxGeometry>
        </mxCell>
        <mxCell id="yfmA3VbyJ0gUPL85XCYw-28" value="" style="verticalLabelPosition=bottom;shadow=0;dashed=0;align=center;html=1;verticalAlign=top;strokeWidth=1;shape=mxgraph.mockup.navigation.scrollBar;strokeColor=#999999;barPos=99.091;fillColor2=#99ddff;strokeColor2=none;direction=north;" parent="1" vertex="1">
          <mxGeometry x="1050" y="70" width="20" height="540" as="geometry" />
        </mxCell>
      </root>
    </mxGraphModel>
  </diagram>
</mxfile>
